<svg width="200" height="100" viewBox="0 0 200 100" fill="none" xmlns="http://www.w3.org/2000/svg">
<path d="M123.778 49.1111L127.445 65.3333L151.222 53.4444L123.778 49.1111Z" fill="#fff"></path>
<path d="M130.556 24.5557L124 48.1112L150.667 52.3334L130.556 24.5557Z" fill="#fff"></path>
<path d="M101.333 21L129.778 24.4444L123.111 48.6667L101.333 21Z" fill="#fff"></path>
<path d="M101.111 25.6667H104.445L113.334 37.1112L101.111 25.6667Z" fill="#fff"></path>
<path d="M152.111 53.2222L143.778 41.7777L157.111 39.2222L152.111 53.2222Z" fill="#fff"></path>
<path d="M150.667 56.4444L151.555 54L130.667 64.6667L150.667 56.4444Z" fill="#fff"></path>
<path d="M123.222 49.5557L127.556 69.2223L114.556 79.6668L123.222 49.5557Z" fill="#fff"></path>
<path d="M155.889 45.111H163.555L157.889 39.4443L155.889 45.111Z" fill="#fff"></path>
<path d="M35.1113 41.6667C35.4447 41.6667 35.8891 41.889 36.2224 41.889C36.5558 41.889 37.0002 41.889 37.3336 41.6667V53.7779C38.5558 51.7779 40.0002 50.3334 42.2224 50.3334C46.2224 50.3334 48.0002 54.3334 48.0002 58.0001C48.0002 62.3334 45.6669 66.5556 41.6669 66.5556C39.3336 66.5556 38.2224 65.1112 37.6669 64.2223C36.8891 64.7779 36.4447 65.4445 35.6669 66.2223H35.1113C35.1113 66.1112 35.1113 41.6667 35.1113 41.6667ZM37.5558 59.5556C37.5558 63.2223 39.0002 65.5556 41.5558 65.5556C44.778 65.5556 45.778 61.2223 45.778 58.1112C45.778 54.4445 44.6669 51.7779 41.778 51.7779C38.4447 51.7779 37.5558 55.7779 37.5558 59.5556Z" fill="#fff"></path>
<path d="M58.7777 49.5556L56.4444 52.6667C58.7777 55.889 61.1111 59.2223 63.3333 62.6668L65.6666 66.3334V66.5556C65.1111 66.5556 64.5555 66.3334 63.9999 66.3334C63.4444 66.3334 62.8888 66.3334 62.3333 66.5556C61.7777 65.4445 61.1111 64.3334 60.3333 63.3334L54.2222 54.0001C53.9999 53.7779 53.6666 53.7779 53.6666 53.7779V66.4445C53.1111 66.4445 52.7777 66.2223 52.4444 66.2223C52.1111 66.2223 51.5555 66.2223 51.2222 66.4445V41.6667C51.5555 41.6667 52.1111 41.889 52.4444 41.889C52.7777 41.889 53.2222 41.889 53.6666 41.6667V52.889C53.6666 53.1112 53.9999 52.889 54.4444 52.6667C54.9999 52.1112 55.5555 51.4445 55.8888 50.889L62.9999 41.6667C63.3333 41.6667 63.7777 41.889 64.1111 41.889C64.4444 41.889 64.8888 41.889 65.2222 41.6667L58.7777 49.5556ZM77.4444 63.7779C77.4444 65.0001 77.4444 65.7779 79.1111 65.2223V66.0001C78.8888 66.2223 78.5555 66.2223 78.2222 66.3334C76.7777 66.6668 75.5555 66.3334 75.3333 64.3334L75.1111 64.6667C73.8888 66.1112 72.5555 66.889 70.8888 66.889C68.8888 66.889 67.1111 65.2223 67.1111 62.889C67.1111 59.1112 69.6666 58.6668 72.3333 58.2223C74.5555 57.889 75.4444 57.6668 75.4444 56.0001C75.4444 53.6668 74.2222 52.2223 72.2222 52.2223C70.2222 52.2223 68.9999 53.889 68.7777 54.5556H68.4444V52.7779C69.8888 51.6667 71.3333 51.0001 72.9999 51.0001C75.8888 51.0001 77.5555 52.7779 77.5555 56.4445C77.4444 56.3334 77.4444 63.7779 77.4444 63.7779ZM75.2222 58.3334L74.1111 58.5556C72.1111 58.889 69.2222 59.3334 69.2222 62.3334C69.2222 64.3334 70.3333 65.4445 71.8888 65.4445C72.6666 65.4445 73.6666 64.889 74.2222 64.2223C74.4444 64.0001 74.9999 63.4445 74.9999 63.1112V58.4445H75.2222V58.3334ZM82.4444 63.2223C83.2222 64.4445 84.4444 65.5556 85.6666 65.5556C87.1111 65.5556 88.3333 64.3334 88.3333 62.4445C88.3333 58.1112 81.6666 60.7779 81.6666 55.2223C81.6666 52.1112 83.6666 50.3334 86.3333 50.3334C87.7777 50.3334 88.9999 50.889 89.5555 51.2223C89.2222 52.0001 88.9999 52.6667 88.7777 53.5556H88.5555C88.2222 52.6667 87.1111 51.5556 86.2222 51.5556C84.7777 51.5556 83.6666 52.4445 83.6666 54.2223C83.6666 58.4445 90.3333 56.2223 90.3333 61.4445C90.3333 64.889 87.6666 66.6667 85.1111 66.6667C83.9999 66.6667 82.5555 66.3334 81.4444 65.5556C81.6666 64.7779 81.9999 63.889 81.9999 63.2223H82.2222H82.4444ZM94.2222 41.6667C94.5555 41.6667 94.9999 41.889 95.3333 41.889C95.6666 41.889 96.1111 41.889 96.4444 41.6667V53.6667C97.3333 51.6667 98.9999 50.4445 101 50.4445C104.222 50.4445 105.556 52.6667 105.556 56.7779V66.2223C105.222 66.2223 104.778 66.0001 104.444 66.0001C104.111 66.0001 103.667 66.0001 103.333 66.2223V57.5556C103.333 53.889 102.556 52.1112 100.222 52.1112C97.6666 52.1112 96.4444 53.889 96.4444 57.3334V66.2223C96.1111 66.2223 95.6666 66.0001 95.3333 66.0001C94.9999 66.0001 94.5555 66.0001 94.2222 66.2223C94.2222 66.1112 94.2222 41.6667 94.2222 41.6667Z" fill="#fff"></path>
</svg>