<svg width="200" height="100" viewBox="0 0 200 100" fill="none" xmlns="http://www.w3.org/2000/svg">
<path d="M74.8566 61.6151C78.5015 66.1242 81.9668 66.03 84.7647 64.8065C87.3315 63.6685 88.6748 60.6568 88.2299 57.2857C88.17 57.3113 88.0502 57.3113 88.0502 57.3712C86.4074 61.3755 82.2577 61.9402 79.0064 61.0418C76.1144 60.2632 74.6171 58.1755 74.1721 55.3092C74.0267 54.2653 73.9326 53.1873 73.9326 52.1177C73.8983 47.7883 73.9326 43.4846 73.9326 39.0696H79.1005C79.1347 39.4546 79.1604 39.8739 79.1604 40.2931V50.86C79.1604 51.6044 79.2203 52.3488 79.34 53.1017C79.7593 55.9081 81.4876 57.0119 84.2941 56.2675C86.5614 55.6685 88.0844 53.5808 88.2384 50.5006C88.3839 47.2151 88.3582 43.9295 88.3839 40.6525V39.0439H93.3978C93.4577 39.2236 93.4919 39.4033 93.5176 39.6087C93.5176 46.0258 93.663 52.4429 93.4577 58.8685C93.1925 66.4493 86.7411 71.0782 79.2716 69.3156C76.7903 68.7167 74.5229 67.7327 72.7347 65.8504C72.1957 65.2857 72.1101 64.8664 72.6748 64.2418C73.4534 63.4632 74.078 62.5734 74.8566 61.6151Z" fill="#fff"></path>
<path d="M43.7465 39.3176V42.6031C42.1379 40.2758 39.8363 38.8127 37.2695 38.8127C32.4609 38.8127 28.5508 43.9807 28.5508 50.3379C28.5508 56.6951 32.4609 61.863 37.2695 61.863C39.8363 61.863 42.1379 60.3999 43.7465 58.0726V61.863H49V39.3176H43.7465ZM38.7583 57.1058C35.9262 57.1058 33.5904 54.0598 33.5904 50.3037C33.5904 46.5475 35.892 43.493 38.7583 43.493C41.6246 43.493 43.9262 46.5389 43.9262 50.3037C43.9262 54.0684 41.6246 57.1058 38.7583 57.1058Z" fill="#fff"></path>
<path d="M135.289 39.3176V42.6031C133.706 40.2758 131.378 38.8127 128.811 38.8127C124.003 38.8127 120.093 43.9807 120.093 50.3379C120.093 56.6951 124.003 61.863 128.811 61.863C131.378 61.863 133.68 60.3999 135.289 58.0726V61.863H140.542V39.3176H135.289ZM130.326 57.1058C127.485 57.1058 125.158 54.0598 125.158 50.3037C125.158 46.5475 127.46 43.493 130.326 43.493C133.192 43.493 135.494 46.5389 135.494 50.3037C135.494 54.0684 133.167 57.1058 130.326 57.1058Z" fill="#fff"></path>
<path d="M190.219 39.3176V42.6031C188.636 40.2758 186.309 38.8127 183.742 38.8127C178.934 38.8127 175.023 43.9807 175.023 50.3379C175.023 56.6951 178.934 61.863 183.742 61.863C186.309 61.863 188.611 60.3999 190.219 58.0726V61.863H195.473V39.3176H190.219ZM185.265 57.1058C182.424 57.1058 180.097 54.0598 180.097 50.3037C180.097 46.5475 182.399 43.493 185.265 43.493C188.131 43.493 190.433 46.5389 190.433 50.3037C190.433 54.0684 188.106 57.1058 185.265 57.1058Z" fill="#fff"></path>
<path d="M144.418 61.8545H149.8V38.8042H144.418V61.8545Z" fill="#fff"></path>
<path d="M150.425 33.3112C150.425 31.4802 148.936 30 147.113 30C145.291 30 143.802 31.4802 143.802 33.3112C143.802 35.1422 145.282 36.6225 147.113 36.6225C148.944 36.6225 150.425 35.1422 150.425 33.3112Z" fill="#fff"></path>
<path d="M109.252 39.1636C106.745 39.1636 104.478 40.4726 102.861 42.5946V38.8042H97.5732V69.9999H102.861V58.4491C104.469 60.571 106.745 61.8801 109.252 61.8801C114.181 61.8801 118.176 56.8063 118.176 50.5347C118.176 44.263 114.172 39.1636 109.252 39.1636ZM107.755 57.1058C105.513 57.1058 103.631 55.4031 102.861 52.9561V48.1218C103.64 45.7005 105.548 43.9721 107.755 43.9721C110.681 43.9721 113.043 46.8983 113.043 50.5432C113.043 54.1882 110.656 57.1144 107.755 57.1144V57.1058Z" fill="#fff"></path>
<path d="M67.156 46.9584L70.9207 44.9905C70.8608 43.2621 69.6971 41.6793 68.234 40.7552C66.7709 39.8311 65.0084 39.4461 63.2458 39.2579C60.4394 38.9584 57.4276 39.198 55.126 40.7809C52.8244 42.3638 51.4554 45.6493 52.7645 48.122C53.8426 50.1841 56.2298 51.1338 58.4971 51.5531C60.7645 51.9723 63.1517 52.1178 65.1881 53.1616C65.6929 53.4269 66.2319 53.8204 66.2661 54.3851C66.3004 54.9498 65.9068 55.4033 65.5217 55.7627C62.8351 58.0044 58.8308 57.645 56.5977 54.9584C55.9731 54.1798 55.4939 53.29 55.28 52.2974L51.1303 54.4793C50.2661 54.9584 53.4918 58.9627 53.911 59.3135C56.9827 62.0001 61.6116 62.4194 65.402 61.1616C68.0629 60.2632 70.5699 58.2953 71.1004 55.5488C71.4255 53.7862 70.9207 51.9638 69.7314 50.6204C68.4479 49.2172 66.5656 48.5584 64.6832 48.1734C62.8009 47.7883 60.9185 47.6686 59.0961 47.0953C58.3175 46.8557 57.4276 46.3167 57.4533 45.4867C57.479 44.7424 58.3175 44.2632 59.0362 44.0236C60.5592 43.5188 62.2276 43.3049 63.7848 43.7584C65.3335 44.2033 66.7367 45.4354 67.156 46.9498V46.9584Z" fill="#fff"></path>
<path d="M168.606 46.9584L172.371 44.9905C172.311 43.2621 171.148 41.6793 169.684 40.7552C168.221 39.8311 166.459 39.4461 164.696 39.2579C161.89 38.9584 158.878 39.198 156.576 40.7809C154.275 42.3638 152.906 45.6493 154.215 48.122C155.293 50.1841 157.68 51.1338 159.948 51.5531C162.215 51.9723 164.602 52.1178 166.638 53.1616C167.143 53.4269 167.682 53.8204 167.717 54.3851C167.742 54.9498 167.357 55.4033 166.972 55.7627C164.286 58.0044 160.281 57.645 158.048 54.9584C157.424 54.1798 156.944 53.29 156.739 52.2974L152.589 54.4793C151.725 54.9584 154.951 58.9627 155.361 59.3135C158.433 62.0001 163.062 62.4194 166.852 61.1616C169.513 60.2632 172.02 58.2953 172.551 55.5488C172.876 53.7862 172.371 51.9638 171.148 50.6204C169.864 49.2172 167.982 48.5584 166.099 48.1734C164.217 47.7883 162.335 47.6942 160.547 47.1295C159.768 46.89 158.878 46.3509 158.904 45.521C158.929 44.7766 159.768 44.2974 160.487 44.0579C162.01 43.5531 163.678 43.3392 165.235 43.7926C166.784 44.2375 168.187 45.4354 168.606 46.9584Z" fill="#fff"></path>
<path d="M24.0675 42.7145C24.0675 42.7145 20.1573 36.7423 11.6782 39.7284C11.6782 39.7284 7.08352 40.9776 5.02148 48.3274C5.02148 48.3274 9.26533 55.1038 19.5926 52.922C19.5926 52.922 28.4311 50.6204 24.0675 42.7145ZM18.5145 48.6867C16.7862 49.491 14.1509 49.2857 12.337 48.8065C12.2172 48.7723 9.85571 47.9423 9.97549 47.7284C11.7038 44.537 16.2129 41.6108 19.353 44.8621C19.6782 45.1616 19.9177 45.5808 20.0375 46.0001C20.3028 47.1295 19.4985 48.2418 18.5145 48.6867Z" fill="#fff"></path>
<path d="M5.04706 50.5432C5.04706 50.5432 4.02888 58.5432 11.4642 61.17C18.8995 63.7967 24.7519 58.9881 26.4802 56.002L22.2449 53.4951C22.2449 53.4951 18.9337 60.3657 9.4107 55.9165C9.4107 55.9165 5.94546 53.8887 5.04706 50.5432Z" fill="#fff"></path>
</svg>