<svg width="200" height="100" viewBox="0 0 200 100" fill="none" xmlns="http://www.w3.org/2000/svg">
<path d="M19.8097 37.9068V55.3434C19.8097 57.875 18.9634 59.5627 17.5517 60.9684C16.1412 62.3752 14.164 62.9382 11.9048 62.9382C9.36351 62.9382 7.66971 62.3752 5.9759 60.9684C4.84751 59.8436 4 57.875 4 55.3434H9.08263C9.08263 56.4682 9.36473 57.3132 9.92893 57.875C10.4931 58.4368 11.0585 58.7189 12.1869 58.7189C13.0344 58.7189 13.8819 58.4368 14.164 57.875C14.4461 57.312 14.7282 56.4682 14.7282 55.6255V37.9056H19.8109L19.8097 37.9068ZM42.3957 54.4996H27.7157C27.7157 55.9052 28.2799 57.0312 29.1262 57.8738C30.257 58.7177 31.3854 59.2806 32.515 59.2806C34.4909 59.2806 35.6205 58.4368 36.4668 56.7491H41.8316C41.2674 58.7189 40.1377 60.1245 38.4439 61.5301C36.7501 62.937 34.773 63.5 32.515 63.5C30.7239 63.5053 28.9658 63.0187 27.4324 62.0931C26.0219 61.2492 24.609 60.1233 23.7627 58.4368C22.9152 56.7491 22.6331 55.0625 22.6331 53.0927C22.6331 51.1241 22.9152 49.1555 23.7627 47.7499C24.6102 46.343 25.7386 44.9374 27.1503 44.0935C28.562 43.2497 30.5391 42.9688 32.2329 42.9688C34.2088 42.9688 35.9026 43.2497 37.3143 44.0935C38.7072 44.9188 39.8717 46.0791 40.7019 47.469C41.5495 48.8746 41.8316 50.5623 41.8316 52.531C42.3957 53.3748 42.3957 53.9366 42.3957 54.4996ZM37.3143 51.1241C37.3143 49.7185 36.7501 48.8746 35.9038 48.0308C35.0563 47.1869 33.9267 46.906 32.515 46.906C31.3854 46.906 30.2558 47.469 29.4095 48.0308C28.562 48.5937 27.9978 50.0006 27.7157 51.1241H37.3143ZM50.3018 47.1881V56.7503C50.3018 57.312 50.5839 57.875 50.866 58.1559C51.1481 58.4368 51.7135 58.7189 52.5598 58.7189H54.819V62.937H51.7135C47.4784 62.937 45.2204 60.9684 45.2204 56.7503V47.1881H42.9612V43.2509H45.2192V38.1877H50.3018V42.9688H54.819V47.1881H50.3018ZM60.1837 62.0943C58.772 61.2505 57.3603 60.1245 56.5128 58.438C55.6665 56.7503 55.1023 55.0625 55.1023 53.0939C55.1023 51.1253 55.6665 49.1567 56.5128 47.7511C57.3603 46.0634 58.772 44.9386 60.1837 44.0948C61.5942 43.2509 63.5714 42.6879 65.2664 42.6879C67.2411 42.6879 68.9361 43.2509 70.3466 44.0948C71.7583 44.9386 73.17 46.0634 74.0175 47.7511C74.865 49.4376 75.428 51.1253 75.428 53.0939C75.428 55.0638 75.428 57.0312 74.5817 58.438C73.7354 59.8436 72.3237 61.2505 70.912 62.0943C69.5003 62.9382 67.5244 63.5 65.5473 63.5C63.5714 63.2191 61.8775 62.9382 60.1837 62.0943ZM68.0886 58.438C68.8804 57.9301 69.5541 57.2584 70.0645 56.4682C70.6299 55.6255 70.912 54.5008 70.912 53.376C70.912 51.4062 70.3466 50.0006 69.5003 49.1567C68.6528 48.3129 67.2411 47.7511 65.8293 47.7511C64.4189 47.7511 63.288 48.3129 62.1596 49.1567C61.03 49.7197 60.4658 51.1265 60.4658 53.0939C60.4658 55.0638 61.03 56.4694 61.8763 57.3132C62.7238 58.438 64.1355 58.7189 65.5485 58.7189C66.3948 58.9998 67.2411 58.7189 68.0886 58.438ZM94.9086 45.2183C96.3203 46.6251 97.1678 48.5937 97.1678 51.4062V62.937H92.0852V51.9692C92.0852 50.2803 91.8031 49.1555 90.9568 48.3116C90.1092 47.469 88.9796 46.906 87.8512 46.906C86.4395 46.906 85.3099 47.469 84.4624 48.3116C83.6161 49.1555 83.0519 50.5611 83.0519 51.968V62.9358H77.9693V43.2509H83.0519V45.7825C83.6161 44.9386 84.4624 44.3756 85.5932 43.8127C86.7216 43.2509 87.8512 42.97 88.9796 42.97C91.521 42.97 93.4969 43.5306 94.9086 45.2183ZM107.896 43.8127C109.024 43.2509 110.437 42.9688 111.848 42.9688C113.542 42.9688 114.953 43.2509 116.365 44.0935C117.777 44.9374 118.906 46.0634 119.754 47.7499C120.6 49.1567 120.882 51.1253 120.882 53.0939C120.882 55.0625 120.6 56.7503 119.754 58.4368C118.906 60.1245 117.777 61.2492 116.365 62.0931C114.955 62.937 113.542 63.5 111.848 63.5C110.437 63.5 109.024 63.2179 107.896 62.6561C106.765 62.0931 105.919 61.2492 105.073 60.4066V63.2179H99.99V36.5012H105.073V46.0634C105.919 45.2195 106.766 44.3744 107.896 43.8127ZM115.237 50.0006C114.671 49.1567 114.106 48.3129 113.26 48.0308C112.413 47.469 111.566 47.469 110.718 47.469C109.872 47.469 109.024 47.7499 108.177 48.032C107.331 48.3116 106.766 49.1567 106.202 50.0006C105.637 50.8444 105.355 51.9692 105.355 53.0939C105.355 54.2187 105.637 55.3434 106.202 56.1873C106.766 57.0312 107.331 57.875 108.178 58.1571C109.024 58.7189 109.872 58.7189 110.719 58.7189C111.566 58.7189 112.413 58.4368 113.261 57.875C114.052 57.367 114.725 56.6953 115.235 55.9052C115.801 55.0625 116.083 53.9378 116.083 52.8118C115.84 51.8634 115.558 50.9255 115.237 50.0006ZM123.424 47.7499C124.269 46.0622 125.399 44.9374 126.81 44.0935C128.22 43.2497 129.633 42.9688 131.327 42.9688C132.739 42.9688 134.151 43.2497 135.28 43.8127C136.409 44.3744 137.256 45.2183 138.104 46.0622V43.2497H143.185V63.2179H138.104V60.4054C137.538 61.2493 136.692 62.0931 135.28 62.6549C134.151 63.2179 132.739 63.4987 131.327 63.4987C129.633 63.4987 128.222 62.937 126.81 62.0931C125.398 61.2492 124.269 60.1233 123.422 58.4368C122.575 56.7491 122.293 55.0625 122.293 53.0927C122.011 51.1241 122.576 49.1555 123.424 47.7499ZM136.975 49.9994C136.693 49.1555 135.846 48.3116 134.998 48.0308C134.152 47.7499 133.304 47.469 132.458 47.469C131.611 47.469 130.764 47.7487 129.917 48.0308C129.125 48.5383 128.451 49.2101 127.941 50.0006C127.375 50.8432 127.093 51.968 127.093 53.0927C127.093 54.2187 127.375 55.3422 127.941 56.1873C128.505 57.0312 129.069 57.8738 129.917 58.1559C130.764 58.4368 131.611 58.9998 132.458 58.9998C133.304 58.9998 134.152 58.7177 134.998 58.4368C135.79 57.9289 136.464 57.2572 136.975 56.467C137.539 55.6243 137.822 54.4996 137.822 53.3748C137.822 52.2501 137.539 50.8432 136.975 49.9994ZM162.95 45.2183C164.361 46.6251 165.208 48.8746 165.208 51.4062V62.937H160.127V51.9692C160.127 50.2803 159.843 49.1555 158.997 48.3116C158.15 47.469 157.021 46.906 155.892 46.906C155.261 46.9002 154.637 47.0217 154.054 47.2633C153.472 47.5048 152.945 47.8614 152.504 48.3116C151.656 49.1555 151.374 50.2815 151.374 51.968V62.9358H146.292V43.2509H151.374V45.7825C151.939 44.9386 152.786 44.3756 153.916 43.8127C155.044 43.2509 156.174 42.97 157.303 42.97C159.561 42.97 161.538 43.5306 162.95 45.2183ZM180.172 62.937L173.396 54.4996V62.9382H168.315V36.5H173.396V51.6871L180.172 43.2485H186.666L177.914 53.0927L186.666 62.9358L180.172 62.937ZM193.817 57.9078C193.48 57.9078 193.147 57.9741 192.836 58.1029C192.526 58.2316 192.243 58.4203 192.005 58.6582C191.767 58.8961 191.579 59.1786 191.45 59.4894C191.321 59.8002 191.255 60.1334 191.255 60.4698C191.255 60.8063 191.321 61.1394 191.45 61.4503C191.579 61.7611 191.767 62.0435 192.005 62.2814C192.243 62.5193 192.526 62.708 192.836 62.8368C193.147 62.9655 193.48 63.0318 193.817 63.0318C194.496 63.0318 195.148 62.7619 195.628 62.2814C196.109 61.801 196.379 61.1493 196.379 60.4698C196.379 59.7903 196.109 59.1387 195.628 58.6582C195.148 58.1778 194.496 57.9078 193.817 57.9078ZM193.817 62.5977C193.252 62.5977 192.711 62.3735 192.312 61.9745C191.913 61.5754 191.689 61.0342 191.689 60.4698C191.689 59.9055 191.913 59.3642 192.312 58.9652C192.711 58.5661 193.252 58.3419 193.817 58.3419C194.381 58.3419 194.922 58.5661 195.321 58.9652C195.721 59.3642 195.945 59.9055 195.945 60.4698C195.945 61.0342 195.721 61.5754 195.321 61.9745C194.922 62.3735 194.381 62.5977 193.817 62.5977ZM194.318 60.6826C194.455 60.6309 194.572 60.5372 194.652 60.4149C194.733 60.2925 194.772 60.1479 194.765 60.0017C194.765 59.5944 194.505 59.2515 193.941 59.2515H193.051C193.045 59.2515 193.039 59.2527 193.033 59.255C193.027 59.2573 193.022 59.2607 193.018 59.265C193.014 59.2693 193.01 59.2744 193.008 59.28C193.006 59.2856 193.005 59.2916 193.005 59.2977V61.642C193.005 61.6663 193.025 61.6882 193.051 61.6882H193.362C193.374 61.6882 193.386 61.6833 193.395 61.6747C193.403 61.666 193.408 61.6543 193.408 61.642V60.7507H193.915L194.342 61.6627C194.346 61.6702 194.352 61.6765 194.359 61.6808C194.367 61.6851 194.375 61.6872 194.383 61.687H194.737C194.745 61.6875 194.752 61.6858 194.759 61.6821C194.766 61.6786 194.772 61.6731 194.776 61.6663C194.78 61.6595 194.782 61.6521 194.783 61.6444C194.783 61.6369 194.781 61.6295 194.779 61.6225L194.318 60.6826ZM193.874 60.4297H193.408V59.5834H193.885C194.16 59.5834 194.347 59.7281 194.347 60.0151C194.347 60.2826 194.177 60.4297 193.874 60.4297Z" fill="#fff"></path>
</svg>