<svg width="200" height="100" viewBox="0 0 200 100" fill="none" xmlns="http://www.w3.org/2000/svg">
<path d="M54.188 49.3139C58.6418 50.4335 62.3775 44.6785 62.3775 44.6785C66.0596 50.4283 69.0392 45.798 69.0392 45.798C69.0392 45.798 66.2915 50.4335 57.5413 50.25L54.188 49.3139Z" fill="#fff"></path>
<path d="M71.3924 39.7695C71.3924 39.7695 65.0405 52.8575 54.124 49.3917C54.124 49.3917 74.0519 55.5343 81.3538 44.5746L71.3924 39.7695Z" fill="#fff"></path>
<path d="M77.639 48.9869V66.963H57.2578L57.2578 50.75C56.7335 50.6271 56.2801 50.4749 55.9548 50.3538L55.9548 69.1605C55.9548 71.005 57.237 72.5 58.8202 72.5H76.0783C77.6598 72.5 78.9419 71.005 78.9419 69.1605V48.0889C78.5145 48.4072 78.0127 48.7447 77.639 48.9869Z" fill="#fff"></path>
<path d="M57.2561 31.1371H77.6391V41.9948L78.942 42.7474V30.8378C78.942 28.9933 77.6598 27.5 76.0783 27.5H58.8185C57.2371 27.5 55.9549 28.9933 55.9549 30.8378L55.9548 48.827C56.5362 48.7457 56.9774 48.6073 57.2578 48.5L57.2578 31.1371H57.2561Z" fill="#fff"></path>
<path d="M52.4716 46.8622V59.9225H44.4672V48.1685C44.4672 44.8827 43.1193 43.4915 41.0118 43.4915C38.6949 43.4915 37.0096 45.0505 37.0096 48.589V59.9225H29.0052V48.1685C29.0052 44.8827 27.6989 43.4915 25.5498 43.4915C23.1914 43.4915 21.5061 45.0505 21.5061 48.589V59.9225H13.5V37.0877H21.1272V39.4893C22.854 37.6362 25.2557 36.7087 27.9532 36.7087C31.0695 36.7087 33.7238 37.8455 35.326 40.2905C37.1377 38.0151 39.9598 36.7087 43.2474 36.7087C48.5559 36.7087 52.4733 39.7835 52.4733 46.8622" fill="#fff"></path>
<path d="M108.722 48.5042C108.722 55.7525 103.709 60.3015 97.5149 60.3015C94.8623 60.3015 92.7133 59.5003 91.1526 57.8998V68.0947H83.1482V37.0877H90.7736V39.3613C92.2911 37.5514 94.5232 36.707 97.5149 36.707C103.709 36.707 108.722 41.256 108.722 48.5042ZM100.633 48.5042C100.633 45.0506 98.5271 43.0694 95.8296 43.0694C93.132 43.0694 91.0263 45.0506 91.0263 48.5042C91.0263 51.9579 93.1338 53.9391 95.8296 53.9391C98.5254 53.9391 100.633 51.9597 100.633 48.5042Z" fill="#fff"></path>
<path d="M135.642 50.5287H119.043C119.718 52.8438 121.697 54.1935 124.648 54.1935C126.88 54.1935 128.354 53.5619 129.915 52.2123L134.128 56.5934C131.937 59.0383 128.735 60.3014 124.397 60.3014C116.264 60.3014 110.999 55.2888 110.999 48.461C110.999 41.6332 116.349 36.707 123.554 36.707C130.295 36.707 135.772 41.0034 135.772 48.5458C135.772 49.1358 135.689 49.8954 135.645 50.527M118.917 46.3137H128.271C127.849 43.912 126.08 42.3963 123.594 42.3963C121.107 42.3963 119.381 43.9103 118.917 46.3137Z" fill="#fff"></path>
<path d="M137.665 57.943L140.066 52.4666C142.174 53.7713 145.249 54.5724 148.029 54.5724C150.81 54.5724 151.609 53.9824 151.609 53.0134C151.609 49.9369 138.127 53.4339 138.127 44.2909C138.127 39.9929 142.087 36.7087 149.251 36.7087C152.452 36.7087 155.992 37.3818 158.266 38.6467L155.864 44.0798C153.589 42.8167 151.313 42.3962 149.291 42.3962C146.595 42.3962 145.626 43.1541 145.626 43.9968C145.626 47.158 159.067 43.7442 159.067 52.8023C159.067 57.0173 155.191 60.3014 147.775 60.3014C143.899 60.3014 139.897 59.3325 137.663 57.9413" fill="#fff"></path>
<path d="M186.663 37.0877V59.9225H179.038V57.6472C177.522 59.4588 175.288 60.3014 172.297 60.3014C166.104 60.3014 161.091 55.7507 161.091 48.461C161.091 41.1712 166.104 36.707 172.297 36.707C174.951 36.707 177.1 37.4666 178.659 39.0654V37.086H186.663V37.0877ZM178.785 48.4627C178.785 45.0073 176.68 43.0694 173.984 43.0694C171.288 43.0694 169.18 45.0073 169.18 48.4627C169.18 51.9181 171.286 53.9391 173.984 53.9391C176.681 53.9391 178.785 51.9597 178.785 48.4627Z" fill="#fff"></path>
</svg>