<svg width="200" height="100" viewBox="0 0 200 100" fill="none" xmlns="http://www.w3.org/2000/svg">
<path d="M100 20C66.863 20 40 33.4326 40 50C40 66.5674 66.863 80 100 80C133.137 80 160.002 66.5674 160.002 50C160.002 33.4326 133.135 20 100 20ZM100 75.2649C69.4793 75.2649 44.7372 63.9533 44.7372 50C44.7372 36.0467 69.4793 24.7372 100 24.7372C130.521 24.7372 155.265 36.0467 155.265 50C155.265 63.9533 130.523 75.2649 100 75.2649ZM92.4349 44.7379V40.0007H109.369V44.7379H103.272V60.0056H98.5289V44.7379H92.4349ZM129.795 40.0007V60.0056H125.058L116.466 48.0992V60.0056H111.731V40.0007H116.466L125.058 51.9071V40.0007H129.795ZM70.0677 60.0056V40.0007H74.8049L80.067 48.095L85.3291 40.0007H90.0663V60.0056H85.3291V48.6876L81.7308 54.2101H78.3969L74.7986 48.6876V60.0056H70.0677Z" fill="#fff"></path>
</svg>