<svg width="200" height="100" viewBox="0 0 200 100" fill="none" xmlns="http://www.w3.org/2000/svg">
<path fill-rule="evenodd" clip-rule="evenodd" d="M97.1007 34.3425C92.3127 34.3429 88.4314 38.2244 88.4314 43.0127V71.6872C88.4314 72.1749 88.036 72.5702 87.5483 72.5702C87.0606 72.5702 86.6653 72.1749 86.6653 71.6872V43.0127C86.6653 37.2488 91.3377 32.5764 97.1013 32.5764H97.1027L105.569 32.5892C111.317 32.6006 115.971 37.2633 115.971 43.0112V49.1146C115.971 54.8785 111.298 59.5509 105.534 59.5509H93.571C93.0833 59.5509 92.6879 59.1556 92.6879 58.6679C92.6879 58.1802 93.0833 57.7848 93.571 57.7848H105.534C110.323 57.7848 114.205 53.9031 114.205 49.1146V43.0112C114.205 38.2375 110.34 34.365 105.566 34.3553C105.566 34.3553 105.566 34.3553 105.566 34.3553L97.1013 34.3425C97.1011 34.3425 97.1009 34.3425 97.1007 34.3425Z" fill="#fff"></path>
<path fill-rule="evenodd" clip-rule="evenodd" d="M116.571 33.4556C116.571 32.9679 116.966 32.5725 117.454 32.5725H121.126C123.779 32.5725 125.93 34.7232 125.93 37.3761V58.796C125.93 59.2837 125.534 59.6791 125.046 59.6791C124.559 59.6791 124.163 59.2837 124.163 58.796V37.3761C124.163 35.6984 122.804 34.3386 121.126 34.3386H117.454C116.966 34.3386 116.571 33.9433 116.571 33.4556Z" fill="#fff"></path>
<path d="M124.259 30.1371L122.594 28.4715C122.18 28.0583 122.18 27.3882 122.594 26.975L124.258 25.3104C124.672 24.8965 125.343 24.8965 125.757 25.3104L127.421 26.975C127.835 27.3882 127.835 28.0583 127.421 28.4715L125.756 30.1371C125.342 30.5503 124.673 30.5503 124.259 30.1371Z" fill="#fff"></path>
<path fill-rule="evenodd" clip-rule="evenodd" d="M131.209 33.4365C131.209 32.9488 131.605 32.5535 132.092 32.5535H135.734C137.842 32.5535 139.864 33.3909 141.354 34.8811L149.873 43.4L149.873 43.4001C150.632 44.1587 151.861 44.1588 152.62 43.4L161.108 34.9123L161.108 34.9123C162.598 33.4221 164.62 32.5847 166.728 32.5847H169.689C170.177 32.5847 170.572 32.98 170.572 33.4677C170.572 33.9554 170.177 34.3508 169.689 34.3508H166.728C165.088 34.3508 163.516 35.0021 162.357 36.1612L153.869 44.6489C152.421 46.0973 150.072 46.0974 148.624 44.6489C148.624 44.6489 148.624 44.6488 148.624 44.6488L140.105 36.13C138.946 34.9709 137.374 34.3196 135.734 34.3196H132.092C131.605 34.3196 131.209 33.9242 131.209 33.4365Z" fill="#fff"></path>
<path fill-rule="evenodd" clip-rule="evenodd" d="M152.62 48.645C151.861 47.8862 150.632 47.8863 149.873 48.6449L149.873 48.645L141.354 57.1639C139.864 58.6541 137.842 59.4916 135.734 59.4916H132.092C131.605 59.4916 131.209 59.0962 131.209 58.6085C131.209 58.1208 131.605 57.7254 132.092 57.7254H135.734C137.374 57.7254 138.946 57.0741 140.105 55.9151L148.624 47.3962C148.624 47.3962 148.624 47.3962 148.624 47.3961C150.072 45.9477 152.421 45.9478 153.869 47.3961L162.357 55.8838C163.516 57.0429 165.088 57.6942 166.728 57.6942H169.689C170.177 57.6942 170.572 58.0896 170.572 58.5773C170.572 59.065 170.177 59.4604 169.689 59.4604H166.728C164.62 59.4604 162.598 58.6229 161.108 57.1327L161.108 57.1327L152.62 48.645Z" fill="#fff"></path>
<path d="M65.8345 64.0511C64.0066 64.0511 62.2874 63.3393 60.9948 62.0474L54.0067 55.0591C53.516 54.5671 52.6609 54.5686 52.1704 55.0591L45.1568 62.0729C43.8642 63.3649 42.145 64.0766 40.3171 64.0766H38.9399L47.7906 72.9271C50.5546 75.6911 55.0362 75.6911 57.8004 72.9271L66.6762 64.0511H65.8345Z" fill="#fff"></path>
<path d="M40.3169 39.3328C42.1448 39.3328 43.8641 40.0445 45.1567 41.3365L52.1703 48.3514C52.6754 48.8567 53.5001 48.8586 54.0065 48.3508L60.9946 41.3621C62.2872 40.0701 64.0064 39.3584 65.8343 39.3584H66.676L57.8004 30.4826C55.036 27.7184 50.5545 27.7184 47.7905 30.4826L38.9402 39.3329L40.3169 39.3328Z" fill="#fff"></path>
<path d="M74.0178 46.6997L68.6541 41.3361C68.5361 41.3833 68.4081 41.4129 68.2731 41.4129H65.8344C64.5736 41.4129 63.3394 41.9243 62.4485 42.8158L55.4606 49.8039C54.8067 50.4578 53.9474 50.785 53.0889 50.785C52.2296 50.785 51.371 50.4578 50.7172 49.8045L43.703 42.7903C42.8121 41.8985 41.5779 41.3873 40.3171 41.3873H37.3184C37.1905 41.3873 37.071 41.3572 36.9582 41.3147L31.5732 46.6997C28.8089 49.4639 28.8089 53.9453 31.5732 56.7095L36.958 62.0943C37.071 62.0518 37.1905 62.0217 37.3184 62.0217H40.3171C41.5779 62.0217 42.8121 61.5105 43.703 60.6189L50.7166 53.6053C51.9843 52.3387 54.1942 52.3382 55.4606 53.6059L62.4485 60.5934C63.3394 61.4849 64.5736 61.9963 65.8344 61.9963H68.2731C68.4081 61.9963 68.5361 62.0258 68.6541 62.0731L74.0178 56.7094C76.7818 53.9452 76.7818 49.4639 74.0178 46.6997Z" fill="#fff"></path>
<path d="M94.8291 69.2497C94.4332 69.2497 93.9725 69.345 93.5168 69.4501V71.1973C93.8325 71.3127 94.1929 71.3682 94.5385 71.3682C95.4148 71.3682 95.8303 71.0726 95.8303 70.3008C95.8303 69.5752 95.4899 69.2497 94.8291 69.2497ZM93.2212 72.4948V69.0392H93.4617L93.4868 69.1897C93.8923 69.0944 94.4531 68.9692 94.8537 68.9692C95.1797 68.9692 95.4899 69.0188 95.7501 69.2294C96.0509 69.4752 96.146 69.8704 96.146 70.3008C96.146 70.7523 95.9954 71.1777 95.5849 71.4127C95.2996 71.5731 94.914 71.6382 94.5684 71.6382C94.2128 71.6382 93.8724 71.5829 93.5168 71.4781V72.4948H93.2212Z" fill="#fff"></path>
<path d="M98.3459 69.2392C97.4695 69.2392 97.0788 69.5149 97.0788 70.2861C97.0788 71.0322 97.4644 71.3679 98.3459 71.3679C99.2172 71.3679 99.6078 71.0973 99.6078 70.3261C99.6078 69.58 99.2224 69.2392 98.3459 69.2392ZM99.4726 71.3679C99.182 71.5779 98.7916 71.6382 98.3459 71.6382C97.8902 71.6382 97.4994 71.5731 97.2141 71.3679C96.8936 71.1427 96.7632 70.7718 96.7632 70.3064C96.7632 69.8453 96.8936 69.4701 97.2141 69.2392C97.4994 69.0343 97.8902 68.969 98.3459 68.969C98.7964 68.969 99.182 69.0343 99.4726 69.2392C99.7983 69.4701 99.9233 69.8453 99.9233 70.3008C99.9233 70.7669 99.7931 71.1427 99.4726 71.3679Z" fill="#fff"></path>
<path d="M103.621 71.5682L102.644 69.4703H102.624L101.663 71.5682H101.397L100.356 69.0391H100.681L101.548 71.1623H101.568L102.509 69.0391H102.779L103.746 71.1623H103.766L104.612 69.0391H104.928L103.886 71.5682H103.621Z" fill="#fff"></path>
<path d="M106.817 69.2345C106.006 69.2345 105.73 69.5949 105.68 70.1162H107.954C107.929 69.5403 107.633 69.2345 106.817 69.2345ZM106.807 71.6382C106.321 71.6382 106.006 71.5683 105.755 71.3577C105.46 71.1023 105.359 70.732 105.359 70.3064C105.359 69.9008 105.495 69.4702 105.83 69.2246C106.111 69.0295 106.456 68.9692 106.817 68.9692C107.142 68.9692 107.518 69.0042 107.828 69.2148C108.194 69.4599 108.264 69.8909 108.264 70.3814H105.67C105.68 70.902 105.85 71.3631 106.832 71.3631C107.298 71.3631 107.733 71.2878 108.139 71.2177V71.4829C107.718 71.5584 107.252 71.6382 106.807 71.6382Z" fill="#fff"></path>
<path d="M109.112 71.5683V69.0392H109.352L109.378 69.1897C109.913 69.0546 110.164 68.9692 110.635 68.9692H110.67V69.2497H110.599C110.204 69.2497 109.964 69.3046 109.408 69.4501V71.5683H109.112Z" fill="#fff"></path>
<path d="M112.386 69.2345C111.575 69.2345 111.299 69.5949 111.249 70.1162H113.523C113.498 69.5403 113.202 69.2345 112.386 69.2345ZM112.376 71.6382C111.89 71.6382 111.575 71.5683 111.324 71.3577C111.029 71.1023 110.928 70.732 110.928 70.3064C110.928 69.9008 111.064 69.4702 111.399 69.2246C111.68 69.0295 112.025 68.9692 112.386 68.9692C112.712 68.9692 113.087 69.0042 113.397 69.2148C113.763 69.4599 113.833 69.8909 113.833 70.3814H111.239C111.249 70.902 111.419 71.3631 112.401 71.3631C112.866 71.3631 113.302 71.2878 113.708 71.2177V71.4829C113.287 71.5584 112.821 71.6382 112.376 71.6382Z" fill="#fff"></path>
<path d="M117.07 69.4099C116.754 69.2946 116.394 69.2393 116.048 69.2393C115.172 69.2393 114.756 69.5353 114.756 70.3063C114.756 71.037 115.097 71.3575 115.758 71.3575C116.153 71.3575 116.614 71.2623 117.07 71.1622V69.4099ZM117.125 71.5681L117.1 71.4176C116.694 71.5129 116.133 71.6382 115.733 71.6382C115.408 71.6382 115.097 71.5932 114.836 71.3778C114.536 71.1323 114.441 70.7367 114.441 70.3063C114.441 69.8556 114.591 69.4296 115.001 69.1993C115.287 69.0342 115.673 68.9691 116.023 68.9691C116.374 68.9691 116.714 69.0294 117.07 69.1294V67.9727H117.365V71.5681H117.125Z" fill="#fff"></path>
<path d="M121.698 69.2498C121.302 69.2498 120.841 69.345 120.385 69.4501V71.1926C120.706 71.3127 121.062 71.3682 121.407 71.3682C122.283 71.3682 122.699 71.0726 122.699 70.3008C122.699 69.5753 122.359 69.2498 121.698 69.2498ZM122.454 71.4128C122.168 71.5731 121.783 71.6382 121.437 71.6382C121.062 71.6382 120.686 71.5731 120.305 71.448L120.29 71.5683H120.09V67.9727H120.385V69.1792C120.791 69.0896 121.337 68.9693 121.722 68.9693C122.048 68.9693 122.359 69.0189 122.619 69.2295C122.92 69.4752 123.015 69.8704 123.015 70.3008C123.015 70.7524 122.864 71.1777 122.454 71.4128Z" fill="#fff"></path>
<path d="M123.407 72.5395V72.2644C123.552 72.2791 123.688 72.2895 123.783 72.2895C124.148 72.2895 124.368 72.184 124.574 71.7683L124.669 71.5682L123.347 69.0391H123.688L124.819 71.2224H124.839L125.916 69.0391H126.251L124.829 71.8788C124.569 72.3946 124.288 72.5646 123.773 72.5646C123.657 72.5646 123.532 72.5548 123.407 72.5395Z" fill="#fff"></path>
<path d="M130.324 70.1259H129.343V71.0127H130.329C131.005 71.0127 131.26 70.9371 131.26 70.5668C131.26 70.1707 130.91 70.1259 130.324 70.1259ZM130.144 68.6887H129.343V69.5899H130.149C130.815 69.5899 131.08 69.5101 131.08 69.1344C131.08 68.7341 130.745 68.6887 130.144 68.6887ZM131.666 71.3281C131.305 71.5584 130.87 71.5682 130.073 71.5682H128.576V68.1379H130.039C130.725 68.1379 131.145 68.1478 131.496 68.3584C131.746 68.5087 131.846 68.7389 131.846 69.0393C131.846 69.3996 131.696 69.6403 131.305 69.8006V69.8203C131.746 69.921 132.032 70.1463 132.032 70.6319C132.032 70.9622 131.911 71.1776 131.666 71.3281Z" fill="#fff"></path>
<path d="M135.027 70.5065C134.732 70.4812 134.431 70.4666 134.116 70.4666C133.6 70.4666 133.42 70.5716 133.42 70.8067C133.42 71.0271 133.57 71.1475 133.965 71.1475C134.296 71.1475 134.692 71.0726 135.027 70.997V70.5065ZM135.177 71.5681L135.157 71.4178C134.727 71.5233 134.226 71.6382 133.785 71.6382C133.515 71.6382 133.224 71.603 133.019 71.4527C132.829 71.3177 132.739 71.0973 132.739 70.8419C132.739 70.5562 132.864 70.2909 133.164 70.1559C133.43 70.0307 133.785 70.0209 134.111 70.0209C134.376 70.0209 134.732 70.0356 135.027 70.0559V70.0105C135.027 69.615 134.767 69.4848 134.056 69.4848C133.78 69.4848 133.445 69.4995 133.124 69.5296V69.0188C133.48 68.9893 133.88 68.969 134.211 68.969C134.651 68.969 135.107 69.0042 135.388 69.2043C135.678 69.4098 135.733 69.6954 135.733 70.0705V71.568L135.177 71.5681Z" fill="#fff"></path>
<path d="M139.035 71.5683V70.1708C139.035 69.7105 138.8 69.5451 138.379 69.5451C138.069 69.5451 137.678 69.6251 137.347 69.7055V71.5683H136.641V69.0392H137.217L137.242 69.1995C137.688 69.0846 138.184 68.9692 138.595 68.9692C138.905 68.9692 139.22 69.014 139.461 69.2296C139.661 69.4101 139.736 69.66 139.736 70.0209V71.5683H139.035Z" fill="#fff"></path>
<path d="M141.731 71.6382C141.406 71.6382 141.05 71.5934 140.79 71.373C140.479 71.1224 140.389 70.727 140.389 70.3008C140.389 69.9006 140.519 69.4647 140.905 69.2196C141.22 69.014 141.611 68.9692 142.016 68.9692C142.307 68.9692 142.593 68.9894 142.908 69.0188V69.5598C142.652 69.5353 142.347 69.515 142.102 69.515C141.43 69.515 141.115 69.7255 141.115 70.3064C141.115 70.8524 141.35 71.0874 141.901 71.0874C142.222 71.0874 142.598 71.0274 142.963 70.9572V71.4778C142.567 71.5584 142.137 71.6382 141.731 71.6382Z" fill="#fff"></path>
<path d="M145.049 69.4997C144.378 69.4997 144.082 69.7103 144.082 70.2861C144.082 70.8622 144.373 71.1078 145.049 71.1078C145.715 71.1078 146.005 70.902 146.005 70.3261C146.005 69.7502 145.72 69.4997 145.049 69.4997ZM146.261 71.373C145.95 71.5829 145.545 71.6382 145.049 71.6382C144.543 71.6382 144.137 71.5781 143.832 71.373C143.481 71.1427 143.356 70.7621 143.356 70.3064C143.356 69.8503 143.481 69.4647 143.832 69.2345C144.137 69.0293 144.543 68.9692 145.049 68.9692C145.55 68.9692 145.95 69.0293 146.261 69.2345C146.611 69.4647 146.731 69.8503 146.731 70.301C146.731 70.7571 146.606 71.1427 146.261 71.373Z" fill="#fff"></path>
<path d="M150.808 71.6382C150.383 71.6382 149.922 71.5683 149.576 71.2828C149.166 70.942 149.041 70.4164 149.041 69.8501C149.041 69.3448 149.201 68.7438 149.737 68.3934C150.152 68.1231 150.668 68.0679 151.189 68.0679C151.57 68.0679 151.96 68.093 152.386 68.128V68.7438C152.02 68.7137 151.57 68.6886 151.219 68.6886C150.242 68.6886 149.827 69.0595 149.827 69.8501C149.827 70.6571 150.212 71.0176 150.934 71.0176C151.404 71.0176 151.93 70.9223 152.461 70.8118V71.4226C151.93 71.5283 151.374 71.6382 150.808 71.6382Z" fill="#fff"></path>
<path d="M154.536 69.4197C153.95 69.4197 153.724 69.6303 153.679 70.0159H155.382C155.362 69.6051 155.121 69.4197 154.536 69.4197ZM154.43 71.6382C154.015 71.6382 153.639 71.5883 153.359 71.3575C153.058 71.1075 152.953 70.7318 152.953 70.3008C152.953 69.9152 153.078 69.4848 153.429 69.2342C153.739 69.014 154.135 68.969 154.536 68.969C154.896 68.969 155.322 69.009 155.632 69.2244C156.038 69.5099 156.073 69.9508 156.078 70.4714H153.674C153.689 70.8572 153.894 71.1075 154.606 71.1075C155.046 71.1075 155.537 71.0424 155.953 70.9773V71.473C155.467 71.5534 154.936 71.6382 154.43 71.6382Z" fill="v"></path>
<path d="M159.219 71.5683V70.1708C159.219 69.7105 158.984 69.5451 158.563 69.5451C158.253 69.5451 157.863 69.6251 157.532 69.7055V71.5683H156.826V69.0392H157.402L157.427 69.1995C157.872 69.0846 158.368 68.9692 158.779 68.9692C159.089 68.9692 159.405 69.014 159.645 69.2296C159.845 69.4101 159.921 69.66 159.921 70.0209V71.5683H159.219Z" fill="#fff"></path>
<path d="M161.931 71.6381C161.59 71.6381 161.28 71.5429 161.109 71.2776C160.984 71.0972 160.924 70.8523 160.924 70.5115V69.5647H160.413V69.0391H160.924L160.999 68.2727H161.625V69.0391H162.622V69.5647H161.625V70.3763C161.625 70.5716 161.64 70.7367 161.695 70.8571C161.77 71.0273 161.935 71.0922 162.156 71.0922C162.321 71.0922 162.521 71.0671 162.662 71.0426V71.5479C162.431 71.5933 162.166 71.6381 161.931 71.6381Z" fill="#fff"></path>
<path d="M163.311 71.5683V69.0392H163.887L163.912 69.1995C164.377 69.0693 164.723 68.9692 165.164 68.9692C165.184 68.9692 165.214 68.9692 165.254 68.974V69.5752C165.173 69.5704 165.078 69.5704 165.008 69.5704C164.663 69.5704 164.402 69.6102 164.017 69.7006V71.5683L163.311 71.5683Z" fill="#fff"></path>
<path d="M167.821 70.5065C167.525 70.4812 167.225 70.4666 166.909 70.4666C166.393 70.4666 166.213 70.5716 166.213 70.8067C166.213 71.0271 166.363 71.1475 166.759 71.1475C167.089 71.1475 167.485 71.0726 167.821 70.997V70.5065ZM167.971 71.5681L167.951 71.4178C167.52 71.5233 167.019 71.6382 166.578 71.6382C166.308 71.6382 166.018 71.603 165.812 71.4527C165.622 71.3177 165.532 71.0973 165.532 70.8419C165.532 70.5562 165.657 70.2909 165.958 70.1559C166.223 70.0307 166.578 70.0209 166.904 70.0209C167.17 70.0209 167.525 70.0356 167.821 70.0559V70.0105C167.821 69.615 167.56 69.4848 166.849 69.4848C166.574 69.4848 166.238 69.4995 165.917 69.5296V69.0188C166.273 68.9893 166.674 68.969 167.004 68.969C167.445 68.969 167.901 69.0042 168.181 69.2043C168.471 69.4098 168.527 69.6954 168.527 70.0705V71.568L167.971 71.5681Z" fill="#fff"></path>
<path d="M169.435 67.9727H170.141V71.5681H169.435V67.9727Z" fill="#fff"></path>
</svg>