<svg width="200" height="100" viewBox="0 0 200 100" fill="none" xmlns="http://www.w3.org/2000/svg">
<path fill-rule="evenodd" clip-rule="evenodd" d="M37.0111 65.6455H37.9638L37.0687 69.3541C36.9326 69.8984 36.964 70.3224 37.1446 70.5946C37.3252 70.8668 37.668 71.0029 38.1574 71.0029C38.5977 71.0196 39.0288 70.8744 39.3692 70.5946C39.7149 70.2603 39.9481 69.8268 40.0366 69.3541L40.9264 65.6455H41.8974L40.9892 69.4431C40.8584 70.1586 40.4894 70.8088 39.9424 71.2882C39.3758 71.7225 38.6743 71.943 37.9611 71.9111C37.1446 71.9111 36.5845 71.7148 36.2809 71.3039C35.9773 70.893 35.9171 70.2779 36.1134 69.4588L37.0242 65.6455H37.0111Z" fill="#fff"></path>
<path fill-rule="evenodd" clip-rule="evenodd" d="M41.7612 71.7539L43.274 65.415L46.1529 69.1367C46.2288 69.244 46.3047 69.3487 46.3806 69.4691C46.4565 69.5895 46.5324 69.7308 46.6214 69.8774L47.6368 65.6558H48.5241L47.0113 71.9816L44.0748 68.1736L43.8393 67.8569C43.7651 67.7431 43.7045 67.621 43.6587 67.4931L42.6537 71.7277H41.7612V71.7539Z" fill="#fff"></path>
<path fill-rule="evenodd" clip-rule="evenodd" d="M48.4482 71.7436L49.9008 65.6455H50.8691L49.4166 71.7436H48.4482Z" fill="#fff"></path>
<path fill-rule="evenodd" clip-rule="evenodd" d="M50.7932 71.7436L52.2458 65.6455H55.5591L55.3628 66.4935H53.0178L52.654 68.0062H55.0017L54.7897 68.8673H52.4447L51.7616 71.7279H50.7932V71.7436Z" fill="#fff"></path>
<path fill-rule="evenodd" clip-rule="evenodd" d="M55.1824 71.7436L56.6349 65.6455H57.6033L56.1507 71.7436H55.1824Z" fill="#fff"></path>
<path fill-rule="evenodd" clip-rule="evenodd" d="M57.5273 71.7436L58.9825 65.6455H62.2932L62.097 66.4935H59.752L59.3882 68.0219H61.7332L61.5212 68.883H59.1762L58.7077 70.8511H61.0527L60.8407 71.7436H57.5273Z" fill="#fff"></path>
<path fill-rule="evenodd" clip-rule="evenodd" d="M61.9608 71.754L63.4133 65.6559H64.7219C65.3106 65.6318 65.9001 65.6775 66.4781 65.792C66.7792 65.8672 67.0559 66.0186 67.2816 66.2317C67.5571 66.513 67.7397 66.8719 67.805 67.2602C67.8753 67.7403 67.8495 68.2296 67.7291 68.6997C67.6089 69.2081 67.4045 69.6928 67.1245 70.1339C66.8565 70.5458 66.5053 70.8971 66.0933 71.1651C65.7918 71.3729 65.4534 71.5212 65.0962 71.6022C64.5799 71.7092 64.0529 71.7549 63.5259 71.7383H61.9556V71.754H61.9608ZM63.1412 70.8484H63.9577C64.3031 70.8579 64.6484 70.8263 64.9863 70.7542C65.2202 70.695 65.4412 70.5929 65.638 70.4532C65.9133 70.2557 66.1449 70.0036 66.3184 69.7125C66.5112 69.394 66.6492 69.0455 66.7267 68.6814C66.8173 68.3518 66.8431 68.0079 66.8026 67.6685C66.7682 67.394 66.6524 67.1361 66.4702 66.9279C66.3304 66.7761 66.1479 66.6702 65.9468 66.6243C65.5941 66.5508 65.2338 66.5201 64.8737 66.5327H64.1776L63.149 70.8484H63.1412Z" fill="#fff"></path>
<path fill-rule="evenodd" clip-rule="evenodd" d="M72.1732 69.0059L71.5241 71.754H70.616L72.0685 65.6559H73.5368C73.8509 65.6481 74.1649 65.6735 74.4737 65.7318C74.6507 65.7649 74.8143 65.8485 74.9448 65.9726C75.1061 66.1259 75.212 66.3284 75.2458 66.5484C75.2875 66.8095 75.2777 67.0762 75.217 67.3336C75.1485 67.6196 75.0307 67.8915 74.8689 68.137C74.7162 68.3638 74.5206 68.5586 74.2931 68.7102C74.1109 68.8212 73.9121 68.9025 73.7043 68.951C73.3848 69.0087 73.0604 69.0341 72.7359 69.0269H72.1732V69.0138V69.0059ZM72.4349 68.1894H72.6783C73.0601 68.2173 73.443 68.1545 73.7959 68.0062C73.9071 67.9354 74.0024 67.8424 74.0759 67.7329C74.1493 67.6235 74.1992 67.4999 74.2225 67.3702C74.2957 67.0535 74.2512 66.8101 74.0994 66.6897C73.9477 66.5693 73.5996 66.4934 73.0997 66.4934H72.8589L72.4349 68.1894Z" fill="#fff"></path>
<path fill-rule="evenodd" clip-rule="evenodd" d="M78.5015 71.7539L78.1979 70.1836H75.8424L74.7956 71.7539H73.7827L78.1717 65.415L79.5327 71.7539H78.5015ZM76.4078 69.3487H78.054L77.7923 67.9563C77.7753 67.856 77.7657 67.7545 77.7635 67.6527C77.75 67.5267 77.7448 67.4 77.7478 67.2732C77.6922 67.4041 77.6275 67.5309 77.5541 67.6527C77.4913 67.7731 77.4311 67.8804 77.3709 67.972L76.4182 69.3487H76.4078Z" fill="#fff"></path>
<path fill-rule="evenodd" clip-rule="evenodd" d="M80.904 71.754L81.5714 68.9693L80.3596 65.6716H81.3751L82.1315 67.7444C82.1472 67.8046 82.1602 67.8675 82.1917 67.9564C82.2231 68.0454 82.2388 68.1396 82.2676 68.2182L82.4481 67.9564C82.5083 67.8675 82.5711 67.7889 82.6313 67.713L84.4006 65.6716H85.3689L82.5397 68.9536L81.875 71.7383H80.904V71.754Z" fill="#fff"></path>
<path fill-rule="evenodd" clip-rule="evenodd" d="M90.119 68.7338C90.119 68.6893 90.1347 68.5506 90.1661 68.3386C90.1975 68.1266 90.1949 68.0219 90.2106 67.9016C90.1504 68.035 90.0902 68.1633 90.0143 68.3255C89.9367 68.4717 89.8492 68.6125 89.7526 68.7469L87.4207 72.0001L86.667 68.6893C86.6356 68.5506 86.6068 68.4276 86.5911 68.2941C86.5727 68.1684 86.5622 68.0417 86.5597 67.9146C86.5282 68.0377 86.4838 68.1764 86.4393 68.3255C86.3872 68.4749 86.3261 68.6208 86.2561 68.7626L84.8847 71.7541H83.9922L86.913 65.3995L87.7452 69.2416C87.7659 69.3418 87.7808 69.4432 87.7897 69.5452C87.8054 69.6812 87.8368 69.8618 87.8656 70.0686C87.9703 69.888 88.109 69.676 88.2896 69.4012C88.3305 69.3497 88.3664 69.2945 88.3969 69.2363L91.0298 65.3943L90.9487 71.7541H90.0562L90.1295 68.7286L90.119 68.7338Z" fill="#fff"></path>
<path fill-rule="evenodd" clip-rule="evenodd" d="M91.7261 71.7436L93.176 65.6455H96.4894L96.2957 66.4935H93.9481L93.5869 68.0219H95.9319L95.7199 68.883H93.3723L92.9038 70.8511H95.2514L95.0394 71.7436H91.7261Z" fill="#fff"></path>
<path fill-rule="evenodd" clip-rule="evenodd" d="M96.144 71.7539L97.6542 65.415L100.533 69.1367C100.609 69.244 100.685 69.3487 100.761 69.4691C100.837 69.5895 100.91 69.7308 101.002 69.8774L102.014 65.6558H102.909L101.394 71.9816L98.4603 68.184L98.2352 67.8673C98.1602 67.7536 98.0987 67.6315 98.052 67.5036L97.0391 71.7382H96.1467V71.7539H96.144Z" fill="#fff"></path>
<path fill-rule="evenodd" clip-rule="evenodd" d="M105.992 66.4776L104.739 71.7277H103.768L105.024 66.4776H103.451L103.647 65.6296H107.764L107.565 66.4776H105.992Z" fill="#fff"></path>
<path fill-rule="evenodd" clip-rule="evenodd" d="M107.005 70.5161L107.869 70.1549C107.866 70.271 107.888 70.3864 107.933 70.4934C107.978 70.6003 108.045 70.6964 108.131 70.7752C108.331 70.9256 108.577 71.0006 108.827 70.9872C109.096 70.9955 109.359 70.9093 109.57 70.7438C109.78 70.5838 109.925 70.3532 109.978 70.0947C110.067 69.7309 109.858 69.4116 109.343 69.142C109.29 69.1065 109.234 69.0758 109.175 69.0504C108.602 68.7181 108.238 68.4302 108.086 68.158C107.932 67.8591 107.9 67.5117 107.997 67.1896C108.108 66.7063 108.386 66.2779 108.782 65.9805C109.186 65.6704 109.682 65.5045 110.19 65.5094C110.557 65.4933 110.921 65.5842 111.237 65.7711C111.361 65.8547 111.464 65.9648 111.54 66.0933C111.616 66.2219 111.661 66.3658 111.674 66.5144L110.829 66.907C110.775 66.7407 110.674 66.5935 110.539 66.483C110.407 66.3896 110.249 66.3418 110.088 66.3469C109.849 66.3423 109.614 66.4168 109.421 66.5589C109.236 66.6954 109.107 66.8944 109.057 67.119C108.966 67.4827 109.222 67.8308 109.814 68.1475C109.847 68.1712 109.883 68.1914 109.921 68.2077C110.325 68.3844 110.675 68.6664 110.934 69.0243C111.09 69.334 111.122 69.6912 111.025 70.024C110.907 70.5695 110.601 71.0564 110.162 71.4007C109.716 71.7449 109.168 71.9293 108.604 71.9241C108.185 71.9503 107.77 71.8208 107.44 71.5603C107.29 71.4361 107.173 71.2772 107.099 71.0975C107.025 70.9179 106.995 70.7228 107.013 70.5292L107.005 70.5161Z" fill="#fff"></path>
<path fill-rule="evenodd" clip-rule="evenodd" d="M114.135 71.7436L115.587 65.6455H116.555L115.1 71.7436H114.135Z" fill="#fff"></path>
<path fill-rule="evenodd" clip-rule="evenodd" d="M116.493 71.7539L118.008 65.415L120.887 69.1367C120.963 69.244 121.039 69.3487 121.115 69.4691L121.358 69.8774L122.355 65.6454H123.248L121.732 71.9711L118.798 68.1736C118.723 68.0663 118.649 67.9616 118.571 67.8569C118.497 67.7431 118.436 67.621 118.39 67.4931L117.383 71.7277H116.493V71.7539Z" fill="#fff"></path>
<path fill-rule="evenodd" clip-rule="evenodd" d="M126.346 66.4776L125.09 71.7277H124.119L125.378 66.4776H123.802L123.999 65.6296H128.116L127.919 66.4776H126.346Z" fill="#fff"></path>
<path fill-rule="evenodd" clip-rule="evenodd" d="M127.388 71.7436L128.84 65.6455H132.172L131.973 66.4935H129.628L129.264 68.0219H131.612L131.397 68.883H129.055L128.587 70.8511H130.929L130.717 71.7436H127.388Z" fill="#fff"></path>
<path fill-rule="evenodd" clip-rule="evenodd" d="M133.366 69.0059L132.717 71.7277H131.806L133.261 65.6297H134.606C134.906 65.623 135.205 65.6493 135.499 65.7082C135.688 65.7443 135.861 65.8354 135.999 65.9699C136.152 66.1272 136.252 66.3286 136.284 66.5457C136.33 66.8065 136.32 67.0742 136.255 67.3309C136.169 67.7678 135.953 68.1684 135.635 68.4798C135.318 68.7604 134.922 68.9351 134.502 68.9797L135.878 71.7487H134.787L133.478 69.0268L133.366 69.0059ZM133.609 68.2338H133.79C134.148 68.2612 134.508 68.1991 134.837 68.0532C134.945 67.978 135.038 67.8814 135.108 67.7694C135.178 67.6573 135.225 67.5322 135.245 67.4015C135.323 67.0691 135.292 66.8257 135.143 66.6896C134.994 66.5535 134.672 66.4776 134.188 66.4776H134.007L133.609 68.2338Z" fill="#fff"></path>
<path fill-rule="evenodd" clip-rule="evenodd" d="M136.467 71.7436L137.919 65.6455H141.235L141.036 66.4935H138.691L138.328 68.0062H140.673L140.463 68.8673H138.116L137.438 71.7279H136.467V71.7436Z" fill="#fff"></path>
<path fill-rule="evenodd" clip-rule="evenodd" d="M144.457 71.7539L144.154 70.1836H141.798L140.752 71.7539H139.736L144.125 65.415L145.486 71.7539H144.457ZM142.364 69.3487H144.015L143.74 67.9563C143.723 67.856 143.714 67.7545 143.712 67.6527C143.698 67.5267 143.693 67.4 143.696 67.2732C143.58 67.5116 143.453 67.7447 143.316 67.972L142.364 69.3487Z" fill="#fff"></path>
<path fill-rule="evenodd" clip-rule="evenodd" d="M151.767 67.1293C151.563 66.8997 151.309 66.7205 151.024 66.6059C150.733 66.4814 150.419 66.4198 150.102 66.4253C149.465 66.421 148.847 66.6468 148.362 67.0613C147.848 67.4877 147.492 68.0735 147.349 68.7258C147.264 68.9969 147.238 69.2834 147.274 69.5654C147.31 69.8474 147.407 70.1182 147.559 70.3589C147.709 70.5715 147.912 70.7417 148.148 70.8531C148.384 70.9644 148.644 71.0133 148.904 70.9949C149.262 70.9966 149.617 70.93 149.951 70.7986C150.329 70.6576 150.686 70.4637 151.011 70.2228L150.749 71.343C150.45 71.5297 150.125 71.6683 149.783 71.7539C149.449 71.8459 149.104 71.8917 148.757 71.89C148.341 71.8981 147.928 71.8206 147.543 71.6623C147.201 71.5153 146.904 71.2806 146.682 70.9818C146.453 70.682 146.307 70.3273 146.258 69.9533C146.193 69.5295 146.219 69.0969 146.334 68.6839C146.439 68.2386 146.615 67.8134 146.857 67.4251C147.103 67.0315 147.416 66.6835 147.781 66.3965C148.131 66.1009 148.53 65.8705 148.961 65.716C149.373 65.566 149.808 65.4889 150.246 65.4883C150.575 65.4836 150.903 65.535 151.215 65.6401C151.509 65.7462 151.781 65.905 152.018 66.1086L151.757 67.1241L151.767 67.1293Z" fill="#fff"></path>
<path fill-rule="evenodd" clip-rule="evenodd" d="M151.856 71.7436L153.309 65.6455H156.625L156.428 66.4935H154.081L153.717 68.0219H156.065L155.85 68.883H153.505L153.037 70.8511H155.382L155.17 71.7436H151.856Z" fill="#fff"></path>
<path fill-rule="evenodd" clip-rule="evenodd" d="M134.243 60.3352H127.6L136.831 27H143.473L134.243 60.3352Z" fill="#fff"></path>
<path fill-rule="evenodd" clip-rule="evenodd" d="M130.793 28.0468C130.341 27.4082 129.63 27.0898 128.66 27.0916H92.1631L90.3625 33.6345H123.559L121.625 40.6094H95.0682V40.5937H88.4258L82.9297 60.4843H89.5617L93.2545 47.1366H123.106C124.067 47.1295 124.996 46.7933 125.739 46.184C126.524 45.5984 127.093 44.7705 127.359 43.8285L131.052 30.4808C131.337 29.4811 131.246 28.6802 130.79 28.0442L130.793 28.0468Z" fill="#fff"></path>
<path fill-rule="evenodd" clip-rule="evenodd" d="M79.0459 58.2466C78.8694 58.8912 78.4869 59.4604 77.9567 59.8672C77.4265 60.2741 76.7777 60.4963 76.1094 60.5H41.8661C40.9265 60.5 40.233 60.1807 39.7723 59.5447C39.3117 58.9088 39.2096 58.1236 39.4844 57.1893L47.8437 27.0916H54.4862L47.0272 53.957H73.5969L81.0559 27.0916H87.701L79.0459 58.2361V58.2466Z" fill="#fff"></path>
<path fill-rule="evenodd" clip-rule="evenodd" d="M154.944 27.0603L163.34 43.7658L145.682 60.4714L154.944 27.0603Z" fill="#fff"></path>
<path fill-rule="evenodd" clip-rule="evenodd" d="M149.043 27.0603L157.439 43.7658L139.765 60.4714L149.043 27.0603Z" fill="#fff"></path>
</svg>