<svg width="200" height="100" viewBox="0 0 200 100" fill="none" xmlns="http://www.w3.org/2000/svg">
<path d="M47.1475 63.3025H39.7357L44.3715 36.7316H51.7829L47.1475 63.3025Z" fill="#fff"></path>
<path d="M74.0158 37.3812C72.5538 36.8436 70.2351 36.25 67.368 36.25C60.0486 36.25 54.8944 39.868 54.8628 45.0406C54.802 48.857 58.5531 50.9767 61.3586 52.2492C64.2261 53.5494 65.2008 54.3982 65.2008 55.5572C65.1717 57.3372 62.8837 58.1578 60.7498 58.1578C57.7907 58.1578 56.2052 57.7347 53.7956 56.7444L52.8197 56.3199L51.7825 62.2845C53.5208 63.0186 56.7235 63.67 60.0486 63.6986C67.8256 63.6986 72.8886 60.1366 72.9486 54.6243C72.9782 51.5996 70.9975 49.2819 66.7272 47.388C64.1349 46.1722 62.5473 45.3524 62.5473 44.1085C62.5777 42.9776 63.8901 41.8194 66.8164 41.8194C69.2259 41.7626 70.9963 42.2995 72.3374 42.8368L73.0078 43.1189L74.0158 37.3812Z" fill="#fff"></path>
<path fill-rule="evenodd" clip-rule="evenodd" d="M87.2829 36.7316H93.0159L98.9953 63.3021H92.1327C92.1327 63.3021 91.4611 60.2492 91.2484 59.3163H81.7323C81.4571 60.0226 80.1767 63.3021 80.1767 63.3021H72.3998L83.409 38.9362C84.1718 37.2117 85.515 36.7316 87.2829 36.7316ZM86.8263 46.455C86.8263 46.455 84.4775 52.3629 83.8671 53.8894H90.0277C89.723 52.5609 88.3194 46.2007 88.3194 46.2007L87.8014 43.9112C87.5833 44.5007 87.2678 45.3113 87.0551 45.858C86.9109 46.2286 86.8138 46.4779 86.8263 46.455Z" fill="#fff"></path>
<path d="M7.622 36.7316H19.5468C21.1631 36.7875 22.4747 37.268 22.9015 38.9651L25.4928 51.1721C25.4932 51.1733 25.4935 51.1745 25.4939 51.1757L26.2871 54.8504L33.5457 36.7316H41.383L29.733 63.2743H21.8952L15.2892 40.1866C13.0098 38.9513 10.4085 37.9579 7.5 37.2684L7.622 36.7316Z" fill="#fff"></path>
<path d="M149.279 70.3194C149.473 70.4861 149.682 70.6528 149.884 70.8194C145.914 73.4583 141.152 75 136.028 75C122.207 75 111 63.8056 111 50C111 36.1944 122.207 25 136.028 25C141.152 25 145.914 26.5417 149.884 29.1806C149.682 29.3472 149.473 29.5069 149.279 29.6806C143.383 34.8056 139.998 42.2153 139.998 50C139.998 57.7847 143.376 65.1944 149.279 70.3194Z" fill="#fff"></path>
<path d="M166.965 25C161.841 25 157.079 26.5417 153.109 29.1806C153.311 29.3472 153.52 29.5069 153.714 29.6806C159.61 34.8056 162.995 42.2083 162.995 50C162.995 57.7917 159.617 65.1944 153.721 70.3194C153.527 70.4861 153.318 70.6528 153.116 70.8194C157.086 73.4583 161.848 75 166.972 75C180.793 75 192 63.8056 192 50C192 36.1944 180.786 25 166.965 25Z" fill="#fff"></path>
<path d="M151.496 30.3542C151.177 30.6042 150.857 30.8681 150.551 31.139C145.274 35.7223 141.937 42.4723 141.937 50.0001C141.937 57.5279 145.274 64.2779 150.551 68.8612C150.857 69.132 151.177 69.389 151.496 69.6459C151.816 69.389 152.136 69.132 152.442 68.8612C157.719 64.2779 161.056 57.5279 161.056 50.0001C161.056 42.4723 157.719 35.7223 152.442 31.139C152.136 30.8681 151.816 30.6112 151.496 30.3542Z" fill="#fff"></path>
</svg>