<svg width="200" height="100" viewBox="0 0 200 100" fill="none" xmlns="http://www.w3.org/2000/svg">
<path d="M166.271 59.1701L160.215 58.0054C160.086 59.4779 159.718 60.7505 159.114 61.5014C158.511 62.2524 157.416 62.6406 156.336 62.6406C155.411 62.667 154.514 62.3146 153.84 61.6603C153.168 61.0145 152.833 60.0433 152.834 58.7466V49.1859H164.183V41.4605H152.834V34.439H144.596V58.6074C144.596 62.0465 145.569 64.804 147.513 66.8797C149.458 68.9557 152.354 69.9953 156.201 69.9993C159.484 69.9993 162.3 69.062 164.268 67.1857C165.06 66.4297 165.735 65.5527 166.271 64.5857C167.115 63.0082 167.657 61.2773 167.867 59.4877L166.271 59.1701Z" fill="#fff"></path>
<path d="M86.4713 44.9285C85.123 42.4628 83.1493 40.4237 80.763 39.0305C78.3857 37.5926 75.6173 36.8776 72.4583 36.8854C69.346 36.8854 66.5783 37.6005 64.1557 39.0305C61.7693 40.4237 59.7957 42.4628 58.4473 44.9285C57.0643 47.4304 56.3723 50.2676 56.371 53.4401C56.3697 56.6126 57.0593 59.4525 58.4397 61.9596C59.7903 64.4197 61.7637 66.453 64.148 67.842C66.5697 69.2797 69.3373 69.9987 72.4507 69.9987C75.6137 69.9987 78.382 69.2837 80.7553 67.8537C83.144 66.4627 85.1203 64.425 86.4713 61.9596C87.8553 59.4577 88.5473 56.6205 88.5473 53.448C88.5473 50.2755 87.8553 47.4356 86.4713 44.9285ZM79.3927 58.2342C78.7413 59.569 77.759 60.7016 76.546 61.5165C75.3057 62.2639 73.8953 62.6577 72.4593 62.6577C71.0233 62.6577 69.613 62.2639 68.3723 61.5165C67.1593 60.7016 66.1773 59.569 65.526 58.2342C64.8327 56.8068 64.4867 55.1421 64.4877 53.2401C64.489 51.3382 64.835 49.6735 65.526 48.2461C66.1517 46.8933 67.1393 45.7543 68.3723 44.9638C69.613 44.2164 71.0233 43.8226 72.4593 43.8226C73.8953 43.8226 75.3057 44.2164 76.546 44.9638C77.779 45.7543 78.767 46.8933 79.3927 48.2461C80.086 49.6709 80.432 51.3356 80.4307 53.2401C80.4297 55.1447 80.0837 56.8094 79.3927 58.2342Z" fill="#fff"></path>
<path d="M132.671 57.2537C132.234 58.9112 131.434 60.2315 130.27 61.2145C129.106 62.1975 127.506 62.689 125.471 62.689C124.135 62.6896 122.812 62.4164 121.578 61.8851C120.385 61.319 119.356 60.4403 118.593 59.3361C117.858 58.1727 117.448 56.7426 117.362 55.0459H138.315C138.402 54.4211 138.465 53.7956 138.504 53.1695C138.59 52.5032 138.633 51.8318 138.634 51.1597C138.634 48.2107 138.028 45.6859 136.817 43.5853C135.678 41.4686 133.962 39.7438 131.883 38.6246C129.769 37.4651 127.283 36.8854 124.425 36.8854C121.354 36.8854 118.673 37.6226 116.38 39.0971C114.116 40.541 112.259 42.5751 110.997 44.9951C109.743 47.4526 109.116 50.1976 109.116 53.2303C109.116 56.6289 109.808 59.6008 111.192 62.1458C112.543 64.615 114.545 66.637 116.965 67.977C119.436 69.3247 122.25 69.9987 125.406 69.9987C129.125 69.9987 132.173 69.1053 134.551 67.3183C136.974 65.53 138.682 63.1171 139.675 60.0792L132.671 57.2537ZM119.943 45.1951C121.233 44.2564 122.777 43.7623 124.355 43.7833C125.468 43.7548 126.574 43.9735 127.598 44.4245C128.486 44.7601 129.254 45.365 129.803 46.1598C130.387 46.9303 130.707 47.8792 130.712 48.8578C130.708 48.9681 130.685 49.0768 130.646 49.1793H117.472C117.904 47.4284 118.646 46.1009 119.943 45.201V45.1951Z" fill="#fff"></path>
<path d="M90.4973 69.325L100.187 30H108.944L99.2557 69.325H90.4973Z" fill="#fff"></path>
<path d="M29.7581 37.5544L38.1253 61.2051L46.9385 37.5544H55.6967L43.1866 69.3187H33.1285L21 37.5544H29.7581Z" fill="#fff"></path>
<path d="M175.185 69.9993C174.546 70.0087 173.917 69.8363 173.367 69.5013C172.833 69.1733 172.392 68.708 172.085 68.1507C171.778 67.5933 171.617 66.963 171.617 66.322C171.617 65.6807 171.778 65.0507 172.085 64.4933C172.392 63.936 172.833 63.4703 173.367 63.1425C173.922 62.8161 174.55 62.6444 175.188 62.6444C175.827 62.6444 176.455 62.8161 177.01 63.1425C177.54 63.4647 177.979 63.9233 178.286 64.474C178.592 65.038 178.752 65.674 178.752 66.321C178.752 66.9677 178.592 67.6037 178.286 68.168C177.982 68.718 177.545 69.1777 177.018 69.5013C176.463 69.84 175.829 70.0123 175.185 69.9993ZM175.185 69.1327C175.671 69.1417 176.15 69.0107 176.568 68.7543C176.975 68.5033 177.312 68.1467 177.545 67.72C177.778 67.2933 177.899 66.811 177.897 66.321C177.904 65.8267 177.784 65.339 177.547 64.9093C177.313 64.491 176.979 64.1427 176.576 63.8973C176.156 63.646 175.679 63.5127 175.194 63.511C174.708 63.5093 174.231 63.639 173.809 63.8877C173.41 64.1353 173.078 64.4833 172.845 64.8993C172.482 65.5423 172.38 66.3073 172.561 67.0277C172.741 67.7483 173.19 68.3657 173.809 68.7463C174.225 69.002 174.701 69.1343 175.185 69.1287V69.1327ZM175.211 68.1073C174.905 68.1007 174.605 68.0117 174.342 67.849C174.079 67.6867 173.861 67.456 173.71 67.1803C173.559 66.9047 173.481 66.593 173.482 66.2763C173.483 65.9597 173.563 65.6487 173.716 65.374C173.864 65.1133 174.078 64.9 174.334 64.7563C174.59 64.609 174.879 64.5327 175.171 64.5347C175.537 64.5223 175.898 64.6287 176.202 64.8387C176.498 65.068 176.696 65.4077 176.754 65.7857L176.037 66.0053C176.008 65.7903 175.907 65.593 175.75 65.4483C175.592 65.3077 175.389 65.2323 175.181 65.2367C174.944 65.24 174.716 65.335 174.543 65.5033C174.388 65.6477 174.278 65.8373 174.228 66.047C174.178 66.257 174.191 66.4773 174.264 66.6797C174.337 66.882 174.467 67.057 174.638 67.182C174.809 67.3067 175.012 67.3757 175.221 67.3797C175.349 67.3897 175.478 67.3707 175.598 67.3243C175.719 67.278 175.828 67.2053 175.919 67.111C176.076 66.9283 176.176 66.7007 176.206 66.4583L176.896 66.721C176.808 67.1243 176.593 67.486 176.285 67.7503C175.978 67.9937 175.598 68.1187 175.211 68.1033V68.1073Z" fill="#fff"></path>
</svg>